<svg xmlns="http://www.w3.org/2000/svg" version="1.1" xmlns:xlink="http://www.w3.org/1999/xlink" width="200" height="200"><svg xmlns="http://www.w3.org/2000/svg" version="1.1" xmlns:xlink="http://www.w3.org/1999/xlink" viewBox="0 0 200 200"><rect width="200" height="200" fill="url('#gradient')"></rect><defs><linearGradient id="SvgjsLinearGradient1001" gradientTransform="rotate(45 0.5 0.5)"><stop offset="0%" stop-color="#4a5e75" style="--darkreader-inline-stopcolor: var(--darkreader-background-4a5e75, #3b4b5e);" data-darkreader-inline-stopcolor=""></stop><stop offset="100%" stop-color="#2a7fb9" style="--darkreader-inline-stopcolor: var(--darkreader-background-2a7fb9, #226694);" data-darkreader-inline-stopcolor=""></stop></linearGradient></defs><g><g fill="#de2d24" transform="matrix(7.393501805054152,0,0,7.393501805054152,7.39697464784129,152.5671736875596)" stroke="#ec7313" stroke-width="0.2" style="--darkreader-inline-fill: var(--darkreader-background-de2d24, #b0221a); --darkreader-inline-stroke: var(--darkreader-text-ec7313, #ee812b);" data-darkreader-inline-fill="" data-darkreader-inline-stroke=""><path d="M12.24-14.22L12.24-11.57L7.97-11.57L7.97 0L4.54 0L4.54-11.57L0.35-11.57L0.35-14.22L12.24-14.22ZM19.45 0L13.68 0L13.68-14.22L18.79-14.22Q21.53-14.22 22.96-13.21Q24.39-12.21 24.39-10.29L24.39-10.29Q24.39-9.19 23.89-8.41Q23.38-7.63 22.39-7.26L22.39-7.26Q23.51-6.96 24.10-6.16Q24.70-5.36 24.70-4.21L24.70-4.21Q24.70-2.12 23.37-1.07Q22.05-0.02 19.45 0L19.45 0ZM19.51-6.04L17.11-6.04L17.11-2.64L19.36-2.64Q20.28-2.64 20.78-3.06Q21.28-3.49 21.28-4.26L21.28-4.26Q21.28-6.04 19.51-6.04L19.51-6.04ZM17.11-11.57L17.11-8.29L18.90-8.29Q20.02-8.30 20.50-8.70Q20.98-9.10 20.98-9.88L20.98-9.88Q20.98-10.78 20.46-11.18Q19.94-11.57 18.79-11.57L18.79-11.57L17.11-11.57Z"></path></g></g></svg><style>@media (prefers-color-scheme: light) { :root { filter: none; } }
@media (prefers-color-scheme: dark) { :root { filter: none; } }
</style></svg>